<svg width="96" height="96" xmlns="http://www.w3.org/2000/svg" xmlns:xlink="http://www.w3.org/1999/xlink" overflow="hidden"><defs><clipPath id="clip0"><rect x="37" y="188" width="96" height="96"/></clipPath></defs><g clip-path="url(#clip0)" transform="translate(-37 -188)"><path d="M85 248C78.4 248 73 242.6 73 236 73 229.4 78.4 224 85 224 91.6 224 97 229.4 97 236 97 242.6 91.6 248 85 248ZM112 228.5C111.4 226.3 110.5 224.2 109.4 222.3L111.9 214.8 106.2 209.1 98.7 211.6C96.7 210.5 94.6 209.6 92.4 209L89 202 81 202 77.5 209C75.3 209.6 73.2 210.5 71.3 211.6L63.8 209.1 58.1 214.8 60.6 222.3C59.5 224.3 58.6 226.4 58 228.6L51 232 51 240 58 243.5C58.6 245.7 59.5 247.8 60.6 249.7L58.1 257.2 63.8 262.9 71.3 260.4C73.3 261.5 75.4 262.4 77.6 263L81.1 270 89.1 270 92.6 263C94.8 262.4 96.9 261.5 98.8 260.4L106.3 262.9 112 257.2 109.5 249.7C110.6 247.7 111.5 245.6 112.1 243.4L119.1 239.9 119.1 231.9 112 228.5Z" fill="#FFFFFF"/></g></svg>