<svg width="96" height="96" xmlns="http://www.w3.org/2000/svg" xmlns:xlink="http://www.w3.org/1999/xlink" overflow="hidden"><defs><clipPath id="clip0"><rect x="35" y="64" width="96" height="96"/></clipPath></defs><g clip-path="url(#clip0)" transform="translate(-35 -64)"><path d="M90.33 103.17 91.18 100.65 89.26 98.73 86.74 99.58C86.0849 99.2109 85.3861 98.9253 84.66 98.73L83.48 96.38 80.8 96.38 79.61 98.74C78.8813 98.9371 78.1794 99.2225 77.52 99.59L75 98.74 73.08 100.66 73.88 103.18C73.4963 103.831 73.2004 104.531 73 105.26L70.64 106.44 70.64 109.08 73 110.27C73.1945 110.996 73.4801 111.695 73.85 112.35L73 114.87 75 116.79 77.52 115.93C78.1746 116.303 78.8734 116.591 79.6 116.79L80.78 119.14 83.46 119.14 84.65 116.83C85.3639 116.636 86.0521 116.357 86.7 116L89.21 116.86 91.13 114.93 90.28 112.42C90.662 111.76 90.9673 111.059 91.19 110.33L93.54 109.15 93.54 106.44 91.18 105.25C90.9891 104.522 90.7033 103.823 90.33 103.17ZM82.13 111.8C79.9209 111.8 78.13 110.009 78.13 107.8 78.13 105.591 79.9209 103.8 82.13 103.8 84.3257 103.832 86.0978 105.604 86.13 107.8 86.13 110.009 84.3391 111.8 82.13 111.8Z" fill="#0D0D0D"/><path d="M90.72 138.79 73.51 138.79C71.9167 138.884 70.7011 140.252 70.7949 141.845 70.8811 143.307 72.0477 144.474 73.51 144.56L90.72 144.56C92.3133 144.466 93.5289 143.098 93.4351 141.505 93.3489 140.043 92.1823 138.876 90.72 138.79Z" fill="#0D0D0D"/><path d="M82.12 154.33C85.3851 154.325 88.0996 151.815 88.36 148.56L75.87 148.56C76.1353 151.816 78.853 154.325 82.12 154.33Z" fill="#0D0D0D"/><path d="M107.09 108.47 107.09 107.61C106.835 93.9604 95.7417 83.0044 82.09 82.92L82.09 82.92C68.4383 83.0044 57.3448 93.9604 57.09 107.61L57.09 108.47C57.1814 111.43 57.7696 114.354 58.83 117.12 59.8421 119.729 61.3118 122.137 63.17 124.23 65.46 126.72 67.96 131.57 69.02 133.73 69.3442 134.383 70.0114 134.794 70.74 134.79L93.44 134.79C94.1686 134.794 94.8358 134.383 95.16 133.73 96.22 131.57 98.72 126.73 101.01 124.23 102.868 122.137 104.338 119.729 105.35 117.12 106.41 114.354 106.999 111.43 107.09 108.47ZM101.33 108.38C101.259 110.678 100.81 112.948 100 115.1 99.2407 117.038 98.1437 118.825 96.76 120.38 94.5403 123.022 92.6373 125.915 91.09 129L73.09 129C71.5604 125.907 69.6742 123.004 67.47 120.35 66.0863 118.795 64.9893 117.008 64.23 115.07 63.4034 112.921 62.9371 110.651 62.85 108.35L62.85 107.63C63.0291 97.13 71.5586 88.6937 82.06 88.63L82.06 88.63C92.5614 88.6937 101.091 97.13 101.27 107.63Z" fill="#0D0D0D"/><path d="M82.31 79C83.4146 79 84.31 78.1046 84.31 77L84.31 70C84.31 68.8954 83.4146 68 82.31 68 81.2054 68 80.31 68.8954 80.31 70L80.31 77C80.31 78.1046 81.2054 79 82.31 79Z" fill="#0D0D0D"/><path d="M58.58 87.79C59.3601 88.5654 60.6199 88.5654 61.4 87.79 62.1754 87.0099 62.1754 85.7501 61.4 84.97L56.45 80C55.6302 79.2598 54.3655 79.3243 53.6252 80.1441 52.936 80.9075 52.9381 82.0691 53.63 82.83Z" fill="#0D0D0D"/><path d="M104.66 88.76C105.193 88.7604 105.704 88.548 106.08 88.17L111.02 83.17C111.664 82.2728 111.459 81.0232 110.562 80.3789 109.854 79.8705 108.899 79.879 108.2 80.4L103.2 85.4C102.425 86.1801 102.425 87.4399 103.2 88.22 103.594 88.5898 104.12 88.7846 104.66 88.76Z" fill="#0D0D0D"/><path d="M51.25 105.5 44.25 105.5C43.1454 105.5 42.25 106.395 42.25 107.5 42.25 108.605 43.1454 109.5 44.25 109.5L51.25 109.5C52.3546 109.5 53.25 108.605 53.25 107.5 53.25 106.395 52.3546 105.5 51.25 105.5Z" fill="#0D0D0D"/><path d="M58.58 127.14 53.63 132.14C52.791 132.858 52.6933 134.121 53.4118 134.96 54.1303 135.799 55.3929 135.897 56.2318 135.178 56.3101 135.111 56.383 135.038 56.45 134.96L61.4 129.96C62.1185 129.121 62.0208 127.859 61.1818 127.14 60.4331 126.499 59.3288 126.499 58.58 127.14Z" fill="#0D0D0D"/><path d="M106.08 126.76C105.34 125.94 104.075 125.876 103.255 126.616 102.435 127.356 102.371 128.621 103.111 129.441 103.155 129.489 103.201 129.536 103.25 129.58L108.25 134.58C108.957 135.429 110.218 135.544 111.067 134.837 111.915 134.13 112.03 132.869 111.323 132.02 111.228 131.905 111.119 131.801 111 131.71Z" fill="#0D0D0D"/><path d="M120 105.43 113 105.43C111.895 105.43 111 106.325 111 107.43 111 108.535 111.895 109.43 113 109.43L120 109.43C121.105 109.43 122 108.535 122 107.43 122 106.325 121.105 105.43 120 105.43Z" fill="#0D0D0D"/></g></svg>