<svg width="96" height="96" xmlns="http://www.w3.org/2000/svg" xmlns:xlink="http://www.w3.org/1999/xlink" overflow="hidden"><defs><clipPath id="clip0"><rect x="43" y="306" width="96" height="96"/></clipPath></defs><g clip-path="url(#clip0)" transform="translate(-43 -306)"><path d="M129 328 129 377 53 377 53 328 47 328 47 384 82 384C82 385.7 83.3 387 85 387L97 387C98.7 387 100 385.7 100 384L135 384 135 328 129 328Z" fill="#0D0D0D"/><path d="M125 322 57 322 57 373 125 373 125 322ZM63 328 89 328 89 367 63 367 63 328ZM119 367 93 367 93 328 119 328 119 367Z" fill="#0D0D0D"/><path d="M99 338 113 338 113 341 99 341Z" fill="#0D0D0D"/><path d="M99 344 113 344 113 347 99 347Z" fill="#0D0D0D"/><path d="M99 350 108.7 350 108.7 353 99 353Z" fill="#0D0D0D"/></g></svg>