<svg width="96" height="96" xmlns="http://www.w3.org/2000/svg" xmlns:xlink="http://www.w3.org/1999/xlink" overflow="hidden"><defs><clipPath id="clip0"><rect x="197" y="245" width="96" height="96"/></clipPath></defs><g clip-path="url(#clip0)" transform="translate(-197 -245)"><path d="M220 259 270 259 270 327 220 327 220 259ZM214 333 276 333 276 253 214 253 214 333Z" fill="#FFFFFF"/><path d="M227 265 235 265 235 273 227 273Z" fill="#FFFFFF"/><path d="M243 267 263 267 263 271 243 271Z" fill="#FFFFFF"/><path d="M227 281 235 281 235 289 227 289Z" fill="#FFFFFF"/><path d="M243 283 263 283 263 287 243 287Z" fill="#FFFFFF"/><path d="M227 297 235 297 235 305 227 305Z" fill="#FFFFFF"/><path d="M243 299 263 299 263 303 243 303Z" fill="#FFFFFF"/><path d="M227 313 235 313 235 321 227 321Z" fill="#FFFFFF"/><path d="M243 315 263 315 263 319 243 319Z" fill="#FFFFFF"/></g></svg>